<svg id="Grupo_958" data-name="Grupo 958" xmlns="http://www.w3.org/2000/svg" xmlns:xlink="http://www.w3.org/1999/xlink" width="97" height="97" viewBox="0 0 97 97">
  <defs>
    <clipPath id="clip-path">
      <rect id="Retângulo_383" data-name="Retângulo 383" width="97" height="97" fill="#eda511"/>
    </clipPath>
  </defs>
  <g id="Grupo_952" data-name="Grupo 952" clip-path="url(#clip-path)">
    <path id="Caminho_361" data-name="Caminho 361" d="M52.788,140H41.421A1.421,1.421,0,0,0,40,141.421v11.367a1.421,1.421,0,0,0,1.421,1.421H52.788a1.421,1.421,0,0,0,1.421-1.421V141.421A1.421,1.421,0,0,0,52.788,140m-1.421,11.367H42.842v-8.525h8.525Z" transform="translate(-32.422 -113.477)" fill="#eda511"/>
    <path id="Caminho_362" data-name="Caminho 362" d="M159.455,140H148.088a1.421,1.421,0,0,0-1.421,1.421v11.367a1.421,1.421,0,0,0,1.421,1.421h11.367a1.421,1.421,0,0,0,1.421-1.421V141.421A1.421,1.421,0,0,0,159.455,140m-1.421,11.367h-8.525v-8.525h8.525Z" transform="translate(-118.88 -113.477)" fill="#eda511"/>
    <path id="Caminho_363" data-name="Caminho 363" d="M254.754,154.209h11.367a1.421,1.421,0,0,0,1.421-1.421V141.421A1.421,1.421,0,0,0,266.121,140H254.754a1.421,1.421,0,0,0-1.421,1.421v11.367a1.421,1.421,0,0,0,1.421,1.421m1.421-11.367H264.7v8.525h-8.525Z" transform="translate(-205.338 -113.477)" fill="#eda511"/>
    <path id="Caminho_364" data-name="Caminho 364" d="M361.421,154.209h11.367a1.421,1.421,0,0,0,1.421-1.421V141.421A1.421,1.421,0,0,0,372.788,140H361.421A1.421,1.421,0,0,0,360,141.421v11.367a1.421,1.421,0,0,0,1.421,1.421m1.421-11.367h8.525v8.525h-8.525Z" transform="translate(-291.797 -113.477)" fill="#eda511"/>
    <path id="Caminho_365" data-name="Caminho 365" d="M52.788,230H41.421A1.421,1.421,0,0,0,40,231.421v11.367a1.421,1.421,0,0,0,1.421,1.421H52.788a1.421,1.421,0,0,0,1.421-1.421V231.421A1.421,1.421,0,0,0,52.788,230m-1.421,11.367H42.842v-8.525h8.525Z" transform="translate(-32.422 -186.426)" fill="#eda511"/>
    <path id="Caminho_366" data-name="Caminho 366" d="M159.455,230H148.088a1.421,1.421,0,0,0-1.421,1.421v11.367a1.421,1.421,0,0,0,1.421,1.421h11.367a1.421,1.421,0,0,0,1.421-1.421V231.421A1.421,1.421,0,0,0,159.455,230m-1.421,11.367h-8.525v-8.525h8.525Z" transform="translate(-118.88 -186.426)" fill="#eda511"/>
    <path id="Caminho_367" data-name="Caminho 367" d="M52.788,320H41.421A1.421,1.421,0,0,0,40,321.421v11.367a1.421,1.421,0,0,0,1.421,1.421H52.788a1.421,1.421,0,0,0,1.421-1.421V321.421A1.421,1.421,0,0,0,52.788,320m-1.421,11.367H42.842v-8.525h8.525Z" transform="translate(-32.422 -259.375)" fill="#eda511"/>
    <path id="Caminho_368" data-name="Caminho 368" d="M159.455,320H148.088a1.421,1.421,0,0,0-1.421,1.421v11.367a1.421,1.421,0,0,0,1.421,1.421h11.367a1.421,1.421,0,0,0,1.421-1.421V321.421A1.421,1.421,0,0,0,159.455,320m-1.421,11.367h-8.525v-8.525h8.525Z" transform="translate(-118.88 -259.375)" fill="#eda511"/>
    <path id="Caminho_369" data-name="Caminho 369" d="M89.99,55.847V12.788a5.216,5.216,0,0,0-5.21-5.21H82.412V4.263A4.268,4.268,0,0,0,78.149,0H72.466A4.268,4.268,0,0,0,68.2,4.263V7.578H52.1V4.263A4.268,4.268,0,0,0,47.837,0H42.153a4.268,4.268,0,0,0-4.263,4.263V7.578h-16.1V4.263A4.268,4.268,0,0,0,17.524,0H11.841A4.268,4.268,0,0,0,7.578,4.263V7.578H5.21A5.216,5.216,0,0,0,0,12.788v68.2a1.421,1.421,0,0,0,1.421,1.421H50.667A24.151,24.151,0,1,0,89.99,55.847M71.045,4.263a1.422,1.422,0,0,1,1.421-1.421h5.684A1.422,1.422,0,0,1,79.57,4.263V7.578H71.045Zm-30.312,0a1.422,1.422,0,0,1,1.421-1.421h5.684a1.422,1.422,0,0,1,1.421,1.421V7.578H40.732Zm-30.312,0a1.422,1.422,0,0,1,1.421-1.421h5.684a1.422,1.422,0,0,1,1.421,1.421V7.578H10.42ZM5.21,10.42H84.78a2.371,2.371,0,0,1,2.368,2.368v6.157H2.842V12.788A2.371,2.371,0,0,1,5.21,10.42M2.842,79.57V21.787H87.148V53.393a24.162,24.162,0,0,0-4.736-2.726V45a1.421,1.421,0,0,0-1.421-1.421H69.624A1.421,1.421,0,0,0,68.2,45v4.144a23.968,23.968,0,0,0-6,2.025V45a1.421,1.421,0,0,0-1.421-1.421H49.416A1.421,1.421,0,0,0,47.995,45V56.362a1.421,1.421,0,0,0,1.421,1.421h4.559A24.128,24.128,0,0,0,49.643,79.57ZM79.57,49.643a24.089,24.089,0,0,0-6.726-.954q-.908,0-1.8.067V46.416H79.57Zm-22.924,5.3h-5.81V46.416h8.525v6.4a24.33,24.33,0,0,0-2.716,2.13m16.2,39.217A21.313,21.313,0,1,1,94.158,72.845,21.338,21.338,0,0,1,72.845,94.158" fill="#eda511"/>
    <path id="Caminho_370" data-name="Caminho 370" d="M305.472,287a18.472,18.472,0,1,0,18.472,18.472A18.493,18.493,0,0,0,305.472,287m0,34.1a15.63,15.63,0,1,1,15.63-15.63,15.648,15.648,0,0,1-15.63,15.63" transform="translate(-232.627 -232.627)" fill="#eda511"/>
    <path id="Caminho_371" data-name="Caminho 371" d="M379.842,345.889V338.9a1.421,1.421,0,1,0-2.842,0v7.578a1.421,1.421,0,0,0,.416,1l7.578,7.578A1.421,1.421,0,0,0,387,353.05Z" transform="translate(-305.576 -273.542)" fill="#eda511"/>
  </g>
</svg>
