<svg xmlns="http://www.w3.org/2000/svg" width="95.134" height="93.106" viewBox="0 0 95.134 93.106">
  <g id="noun-benefits-5772265" transform="translate(90 -157)">
    <g id="Grupo_998" data-name="Grupo 998" transform="translate(2 2)">
      <path id="Caminho_467" data-name="Caminho 467" d="M96.661,34.121,83.408,25.276,78.2,10.845H62.11L49.33,2,36.078,10.845H19.986L15.253,25.276,2,34.121,7.206,48.553,2,62.984l13.253,8.845,5.206,14.431H36.551L49.33,95.106l13.253-8.845H78.675l5.206-14.431,13.253-8.845-5.68-14.431ZM49.33,76.485c-15.619,0-28.4-12.569-28.4-27.932s12.779-27.932,28.4-27.932,28.4,12.569,28.4,27.932S64.95,76.485,49.33,76.485Z" transform="translate(-94 153)" fill="#eda511"/>
      <path id="Caminho_468" data-name="Caminho 468" d="M30.163,19.173,25.077,9,19.99,19.173,8.8,20.7l8.138,7.63-1.526,11.19,9.664-5.087,9.664,5.087-1.526-11.19,8.138-7.63Z" transform="translate(-69.822 177.293)" fill="#eda511"/>
    </g>
  </g>
</svg>
