<svg xmlns="http://www.w3.org/2000/svg" xmlns:xlink="http://www.w3.org/1999/xlink" width="76.151" height="92.111" viewBox="0 0 76.151 92.111">
  <defs>
    <clipPath id="clip-path">
      <rect id="Retângulo_439" data-name="Retângulo 439" width="76.151" height="92.111" transform="translate(0 0)" fill="#eda511"/>
    </clipPath>
  </defs>
  <g id="Grupo_995" data-name="Grupo 995" transform="translate(0 0)">
    <g id="Grupo_994" data-name="Grupo 994" clip-path="url(#clip-path)">
      <path id="Caminho_466" data-name="Caminho 466" d="M1,7.679H8.63V1a1,1,0,0,1,1-1h54.7a1,1,0,0,1,1,1V14.113l10.082,2.7a1,1,0,0,1,.707,1.222L65.329,58.311v20a1,1,0,0,1-1,1H59.7L56.473,91.37a1,1,0,0,1-1.223.708l-31.738-8.5H1a1,1,0,0,1-1-1V8.679a1,1,0,0,1,1-1ZM38.747,67a1,1,0,0,1,0-2h2.187a1,1,0,0,1,0,2ZM9.286,67a1,1,0,0,1,0-2h24.9a1,1,0,0,1,0,2Zm0-6.789a1,1,0,1,1,0-2H47.419a1,1,0,0,1,0,2Zm0-6.789a1,1,0,0,1,0-2H47.419a1,1,0,0,1,0,2Zm0-6.789a1,1,0,0,1,0-2H47.419a1,1,0,0,1,0,2Zm0-6.789a1,1,0,0,1,0-2H47.419a1,1,0,0,1,0,2Zm7.332-6.793a1,1,0,0,1,0-2H41.4a1,1,0,1,1,0,2Zm-7.332,0a1,1,0,0,1,0-2h3.48a1,1,0,0,1,0,2Zm17.07-6.8a1,1,0,0,1,0-2h.976a1,1,0,0,1,0,2Zm-17.07,0a1,1,0,0,1,0-2H22.333a1,1,0,0,1,0,2ZM48.208,13.648a1,1,0,0,1,2,0V16.82a4.324,4.324,0,0,1-1.129,2.929,3.756,3.756,0,0,1-5.617,0,4.32,4.32,0,0,1-1.129-2.929V9.683H2V81.574H54.7V9.683H44.333V16.82a2.341,2.341,0,0,0,.6,1.578,1.771,1.771,0,0,0,2.68,0,2.327,2.327,0,0,0,.6-1.578ZM42.391,7.683a4.314,4.314,0,0,1,1.067-2.188,3.758,3.758,0,0,1,5.617,0,4.3,4.3,0,0,1,1.066,2.188h5.551a1,1,0,0,1,1,1V11.8l6.629,1.777V2h-52.7V7.679h8.019L19.9,2.98a1,1,0,0,1,1.223-.707L41.306,7.679h1.082Zm5.7,0a2.213,2.213,0,0,0-.485-.836,1.77,1.77,0,0,0-2.679,0,2.323,2.323,0,0,0-.485.836Zm8.6,6.191v68.7a1,1,0,0,1-1,1H31.227L54.8,89.894q9.562-35.7,19.129-71.4L56.7,13.875ZM20.712,7.683H33.591L21.575,4.464Zm42.613,58.1-3.09,11.531h3.09Z" fill="#eda511"/>
    </g>
  </g>
</svg>
