<svg xmlns="http://www.w3.org/2000/svg" xmlns:xlink="http://www.w3.org/1999/xlink" width="97" height="97" viewBox="0 0 97 97">
  <defs>
    <clipPath id="clip-path">
      <rect id="Retângulo_384" data-name="Retângulo 384" width="97" height="97" fill="#eda511"/>
    </clipPath>
  </defs>
  <g id="Grupo_955" data-name="Grupo 955" transform="translate(0.177 -0.004)">
    <g id="Grupo_954" data-name="Grupo 954" transform="translate(-0.177 0.004)" clip-path="url(#clip-path)">
      <path id="Caminho_372" data-name="Caminho 372" d="M95.512,0H1.42A1.42,1.42,0,0,0,0,1.42V8.993a1.42,1.42,0,0,0,1.42,1.42H3.5V73.362a1.42,1.42,0,0,0,1.42,1.42H47.046V86.718a5.206,5.206,0,1,0,2.84,0V74.781H92.01a1.42,1.42,0,0,0,1.42-1.42V10.413h2.083a1.42,1.42,0,0,0,1.42-1.42V1.42A1.42,1.42,0,0,0,95.512,0M50.832,91.726a2.367,2.367,0,1,1-2.367-2.367,2.369,2.369,0,0,1,2.367,2.367M90.59,71.942H6.342V10.413H90.59Zm3.5-64.369H2.84V2.84H94.092Z" transform="translate(0.071 -0.003)" fill="#eda511"/>
      <path id="Caminho_373" data-name="Caminho 373" d="M70.392,150.187c.117,0,.233,0,.35,0a12.238,12.238,0,0,0,12.234-12.238,1.42,1.42,0,0,0-1.42-1.42H72.9a.744.744,0,0,1-.744-.744v-8.655a1.42,1.42,0,0,0-1.42-1.42A12.239,12.239,0,0,0,58.5,138.3a12.385,12.385,0,0,0,11.887,11.887M64,131.4a9.316,9.316,0,0,1,5.318-2.74v7.129a3.587,3.587,0,0,0,3.583,3.583H80.03a9.4,9.4,0,0,1-9.56,7.975,9.51,9.51,0,0,1-9.127-9.127A9.332,9.332,0,0,1,64,131.4" transform="translate(-47.353 -101.918)" fill="#eda511"/>
      <path id="Caminho_374" data-name="Caminho 374" d="M147.8,96.9h11.9a1.42,1.42,0,0,0,1.42-1.42A15.5,15.5,0,0,0,145.634,80a1.42,1.42,0,0,0-1.42,1.42v11.9A3.588,3.588,0,0,0,147.8,96.9m-.744-13.985A12.669,12.669,0,0,1,158.2,94.064H147.8a.745.745,0,0,1-.744-.744Z" transform="translate(-116.84 -64.857)" fill="#eda511"/>
      <path id="Caminho_375" data-name="Caminho 375" d="M219.92,129.223a1.42,1.42,0,1,0,0,2.84h41.65a1.42,1.42,0,0,0,0-2.84h-4.26V96.566a1.42,1.42,0,0,0-1.42-1.42h-5.68a1.42,1.42,0,0,0-1.42,1.42v32.658H245V81.42a1.42,1.42,0,0,0-1.42-1.42h-5.68a1.42,1.42,0,0,0-1.42,1.42v47.8H232.7v-21.3a1.42,1.42,0,0,0-1.42-1.42H225.6a1.42,1.42,0,0,0-1.42,1.42v21.3Zm31.711-31.238h2.84v31.238h-2.84ZM239.325,82.84h2.84v46.383h-2.84Zm-12.306,26.5h2.84v19.879h-2.84Z" transform="translate(-177.062 -64.857)" fill="#eda511"/>
      <path id="Caminho_376" data-name="Caminho 376" d="M59.92,312.84H82.638a1.42,1.42,0,0,0,0-2.84H59.92a1.42,1.42,0,1,0,0,2.84" transform="translate(-47.354 -251.314)" fill="#eda511"/>
      <path id="Caminho_377" data-name="Caminho 377" d="M89.92,280a1.42,1.42,0,1,0,0,2.84h17.039a1.42,1.42,0,0,0,0-2.84Z" transform="translate(-71.674 -226.993)" fill="#eda511"/>
      <path id="Caminho_378" data-name="Caminho 378" d="M59.92,282.84h.947a1.42,1.42,0,1,0,0-2.84H59.92a1.42,1.42,0,1,0,0,2.84" transform="translate(-47.354 -226.993)" fill="#eda511"/>
      <path id="Caminho_379" data-name="Caminho 379" d="M82.638,340H59.92a1.42,1.42,0,1,0,0,2.84H82.638a1.42,1.42,0,0,0,0-2.84" transform="translate(-47.354 -275.634)" fill="#eda511"/>
    </g>
  </g>
</svg>
