<svg id="Grupo_960" data-name="Grupo 960" xmlns="http://www.w3.org/2000/svg" xmlns:xlink="http://www.w3.org/1999/xlink" width="95" height="95" viewBox="0 0 95 95">
  <defs>
    <clipPath id="clip-path">
      <rect id="Retângulo_386" data-name="Retângulo 386" width="95" height="95" fill="#eda511"/>
    </clipPath>
  </defs>
  <g id="Grupo_959" data-name="Grupo 959" clip-path="url(#clip-path)">
    <path id="Caminho_391" data-name="Caminho 391" d="M65.405,9.277H62.158V6.03a6.03,6.03,0,0,0-12.061,0V9.277H19.482V6.03a6.03,6.03,0,0,0-12.061,0V9.277H4.175A4.18,4.18,0,0,0,0,13.452V90.825A4.18,4.18,0,0,0,4.175,95h61.23a4.18,4.18,0,0,0,4.175-4.175V13.452a4.18,4.18,0,0,0-4.175-4.175M52.881,6.03a3.247,3.247,0,0,1,6.494,0V9.277H52.881Zm-42.676,0a3.247,3.247,0,0,1,6.494,0V9.277H10.205Zm-6.03,6.03h61.23A1.393,1.393,0,0,1,66.8,13.452V20.41H2.783V13.452a1.393,1.393,0,0,1,1.392-1.392m61.23,80.156H4.175a1.393,1.393,0,0,1-1.392-1.392V23.193H66.8V90.825a1.393,1.393,0,0,1-1.392,1.392" fill="#eda511"/>
    <path id="Caminho_392" data-name="Caminho 392" d="M446.741,57h-5.566A4.18,4.18,0,0,0,437,61.175V132.61a1.391,1.391,0,0,0,.278.835l5.566,7.422a1.392,1.392,0,0,0,2.227,0l5.566-7.422a1.391,1.391,0,0,0,.278-.835V61.175A4.18,4.18,0,0,0,446.741,57m-1.392,72.615v-58.7h2.783v59.406a11.386,11.386,0,0,0-2.783-.708m-2.783,0a11.386,11.386,0,0,0-2.783.708V70.916h2.783Zm-1.392-69.831h5.566a1.393,1.393,0,0,1,1.392,1.392v6.958h-8.35V61.175a1.393,1.393,0,0,1,1.392-1.392m2.783,77.93-3.494-4.659a8.609,8.609,0,0,1,6.988,0Z" transform="translate(-355.916 -46.424)" fill="#eda511"/>
    <path id="Caminho_393" data-name="Caminho 393" d="M50.669,150H41.392A1.392,1.392,0,0,0,40,151.392v9.277a1.392,1.392,0,0,0,1.392,1.392h9.277a1.392,1.392,0,0,0,1.392-1.392v-9.277A1.392,1.392,0,0,0,50.669,150m-1.392,9.277H42.783v-6.494h6.494Z" transform="translate(-32.578 -122.168)" fill="#eda511"/>
    <path id="Caminho_394" data-name="Caminho 394" d="M199.224,160H171.392a1.392,1.392,0,0,0,0,2.783h27.832a1.392,1.392,0,0,0,0-2.783" transform="translate(-138.457 -130.313)" fill="#eda511"/>
    <path id="Caminho_395" data-name="Caminho 395" d="M131.392,162.783h1.855a1.392,1.392,0,0,0,0-2.783h-1.855a1.392,1.392,0,0,0,0,2.783" transform="translate(-105.879 -130.313)" fill="#eda511"/>
    <path id="Caminho_396" data-name="Caminho 396" d="M166.646,190H131.392a1.392,1.392,0,0,0,0,2.783h35.254a1.392,1.392,0,0,0,0-2.783" transform="translate(-105.879 -154.746)" fill="#eda511"/>
    <path id="Caminho_397" data-name="Caminho 397" d="M199.224,245.667H171.392a1.392,1.392,0,1,0,0,2.783h27.832a1.392,1.392,0,1,0,0-2.783" transform="translate(-138.457 -200.084)" fill="#eda511"/>
    <path id="Caminho_398" data-name="Caminho 398" d="M131.392,248.45h1.855a1.392,1.392,0,1,0,0-2.783h-1.855a1.392,1.392,0,1,0,0,2.783" transform="translate(-105.879 -200.084)" fill="#eda511"/>
    <path id="Caminho_399" data-name="Caminho 399" d="M166.646,275.667H131.392a1.392,1.392,0,0,0,0,2.783h35.254a1.392,1.392,0,0,0,0-2.783" transform="translate(-105.879 -224.518)" fill="#eda511"/>
    <path id="Caminho_400" data-name="Caminho 400" d="M199.224,331.333H171.392a1.392,1.392,0,0,0,0,2.783h27.832a1.392,1.392,0,0,0,0-2.783" transform="translate(-138.457 -269.855)" fill="#eda511"/>
    <path id="Caminho_401" data-name="Caminho 401" d="M131.392,334.116h1.855a1.392,1.392,0,0,0,0-2.783h-1.855a1.392,1.392,0,0,0,0,2.783" transform="translate(-105.879 -269.855)" fill="#eda511"/>
    <path id="Caminho_402" data-name="Caminho 402" d="M166.646,361.333H131.392a1.392,1.392,0,0,0,0,2.783h35.254a1.392,1.392,0,0,0,0-2.783" transform="translate(-105.879 -294.289)" fill="#eda511"/>
    <path id="Caminho_403" data-name="Caminho 403" d="M199.224,417H171.392a1.392,1.392,0,0,0,0,2.783h27.832a1.392,1.392,0,0,0,0-2.783" transform="translate(-138.457 -339.627)" fill="#eda511"/>
    <path id="Caminho_404" data-name="Caminho 404" d="M131.392,419.783h1.855a1.392,1.392,0,0,0,0-2.783h-1.855a1.392,1.392,0,0,0,0,2.783" transform="translate(-105.879 -339.627)" fill="#eda511"/>
    <path id="Caminho_405" data-name="Caminho 405" d="M166.646,447H131.392a1.392,1.392,0,0,0,0,2.783h35.254a1.392,1.392,0,0,0,0-2.783" transform="translate(-105.879 -364.061)" fill="#eda511"/>
    <path id="Caminho_406" data-name="Caminho 406" d="M44.788,254.017a1.388,1.388,0,0,0,.956-.381l5.882-5.566a1.392,1.392,0,0,0-1.913-2.021l-4.925,4.661L42.349,248.4a1.392,1.392,0,0,0-1.913,2.022l3.4,3.214a1.388,1.388,0,0,0,.956.381" transform="translate(-32.579 -200.084)" fill="#eda511"/>
    <path id="Caminho_407" data-name="Caminho 407" d="M46.03,321.333a6.03,6.03,0,1,0,6.03,6.03,6.037,6.037,0,0,0-6.03-6.03m0,9.277a3.247,3.247,0,1,1,3.247-3.247,3.251,3.251,0,0,1-3.247,3.247" transform="translate(-32.578 -261.711)" fill="#eda511"/>
    <path id="Caminho_408" data-name="Caminho 408" d="M46.03,407a6.03,6.03,0,1,0,6.03,6.03A6.037,6.037,0,0,0,46.03,407m0,9.277a3.247,3.247,0,1,1,3.247-3.247,3.251,3.251,0,0,1-3.247,3.247" transform="translate(-32.578 -331.482)" fill="#eda511"/>
  </g>
</svg>
