<svg xmlns="http://www.w3.org/2000/svg" xmlns:xlink="http://www.w3.org/1999/xlink" width="46.806" height="33.996" viewBox="0 0 46.806 33.996">
  <defs>
    <clipPath id="clip-path">
      <rect id="Retângulo_391" data-name="Retângulo 391" width="46.806" height="33.996" fill="#eda511"/>
    </clipPath>
  </defs>
  <g id="Grupo_967" data-name="Grupo 967" transform="translate(0 -0.605)">
    <g id="Grupo_966" data-name="Grupo 966" transform="translate(0 0.605)">
      <g id="Grupo_965" data-name="Grupo 965" clip-path="url(#clip-path)">
        <path id="Caminho_425" data-name="Caminho 425" d="M44.342,34H2.464A2.464,2.464,0,0,1,0,31.533V2.464A2.463,2.463,0,0,1,2.464,0H44.342a2.463,2.463,0,0,1,2.464,2.463V31.533A2.464,2.464,0,0,1,44.342,34M4.927,29.07H41.879V4.928H4.927Z" transform="translate(0 0)" fill="#eda511"/>
        <path id="Caminho_426" data-name="Caminho 426" d="M23.4,22.172a2.459,2.459,0,0,1-1.566-.562L.9,4.366A2.463,2.463,0,0,1,4.03.563L23.4,16.517,42.776.563a2.463,2.463,0,0,1,3.132,3.8L24.969,21.61a2.459,2.459,0,0,1-1.566.562" transform="translate(0 0)" fill="#eda511"/>
      </g>
    </g>
  </g>
</svg>
