<svg id="Grupo_986" data-name="Grupo 986" xmlns="http://www.w3.org/2000/svg" xmlns:xlink="http://www.w3.org/1999/xlink" width="93.328" height="98" viewBox="0 0 93.328 98">
  <defs>
    <clipPath id="clip-path">
      <rect id="Retângulo_416" data-name="Retângulo 416" width="93.328" height="98" fill="#eda511"/>
    </clipPath>
  </defs>
  <g id="Grupo_985" data-name="Grupo 985" clip-path="url(#clip-path)">
    <path id="Caminho_433" data-name="Caminho 433" d="M59.64,56.792a1.273,1.273,0,0,0-1.155-.883l-10.956-.486L43.814,45.256a1.274,1.274,0,0,0-1.19-.836h-.005a1.272,1.272,0,0,0-1.191.826l-3.848,10.27-10.817.391a1.272,1.272,0,0,0-.747,2.267l8.578,6.833-2.97,10.409a1.273,1.273,0,0,0,1.926,1.411L42.7,70.78l8.981,6.041a1.272,1.272,0,0,0,1.936-1.395L50.691,64.855l8.521-6.675a1.268,1.268,0,0,0,.428-1.388M48.453,63.377a1.272,1.272,0,0,0-.442,1.342l2.233,8.073-6.831-4.6A1.272,1.272,0,0,0,42,68.191L35.014,72.81l2.259-7.916a1.272,1.272,0,0,0-.431-1.345L30.291,58.33l8.228-.3a1.271,1.271,0,0,0,1.146-.825L42.6,49.364,45.428,57.1a1.272,1.272,0,0,0,1.139.834l8.368.371ZM60.559,85.1H4.816a2.274,2.274,0,0,1-2.271-2.271V41.8A2.274,2.274,0,0,1,4.816,39.53h75.6A2.274,2.274,0,0,1,82.69,41.8V65.78a1.273,1.273,0,0,0,2.546,0V41.8a4.821,4.821,0,0,0-4.816-4.816H76.949L49.466,12.531a8.14,8.14,0,1,0-13.7,0L8.286,36.985H4.816A4.821,4.821,0,0,0,0,41.8V82.834A4.821,4.821,0,0,0,4.816,87.65H60.559a1.273,1.273,0,0,0,0-2.546M42.617,2.546a5.595,5.595,0,1,1-5.595,5.595,5.6,5.6,0,0,1,5.595-5.595M37.46,14.433a8.12,8.12,0,0,0,10.314,0L73.118,36.985h-61ZM6.536,68.306a1.273,1.273,0,0,1,1.273-1.273H21.543a1.273,1.273,0,0,1,0,2.546H7.808a1.274,1.274,0,0,1-1.273-1.273m20.241,5.406A1.273,1.273,0,0,1,25.5,74.985H7.808a1.273,1.273,0,0,1,0-2.546H25.5a1.272,1.272,0,0,1,1.273,1.273m0,5.406A1.273,1.273,0,0,1,25.5,80.392H7.808a1.273,1.273,0,0,1,0-2.546H25.5a1.272,1.272,0,0,1,1.273,1.273m15.84-66.912A4.067,4.067,0,1,0,38.55,8.139a4.072,4.072,0,0,0,4.067,4.067m0-5.587A1.521,1.521,0,1,1,41.1,8.141a1.523,1.523,0,0,1,1.521-1.521m35.9,61.753A14.814,14.814,0,1,0,93.328,83.187,14.83,14.83,0,0,0,78.514,68.372m0,27.082A12.269,12.269,0,1,1,90.783,83.186,12.283,12.283,0,0,1,78.514,95.454m6.83-15.923-7.853,8.984a1.273,1.273,0,0,1-.958.436H76.5a1.273,1.273,0,0,1-.967-.486l-3.891-4.952a1.273,1.273,0,0,1,2-1.572l2.942,3.745,6.843-7.828a1.272,1.272,0,0,1,1.916,1.674" fill="#eda511"/>
  </g>
</svg>
