<svg xmlns="http://www.w3.org/2000/svg" xmlns:xlink="http://www.w3.org/1999/xlink" width="40.311" height="40.311" viewBox="0 0 40.311 40.311">
  <defs>
    <clipPath id="clip-path">
      <rect id="Retângulo_395" data-name="Retângulo 395" width="40.311" height="40.311" fill="#eda511"/>
    </clipPath>
  </defs>
  <g id="Grupo_973" data-name="Grupo 973" transform="translate(0)">
    <g id="Grupo_972" data-name="Grupo 972" transform="translate(0)" clip-path="url(#clip-path)">
      <path id="Caminho_432" data-name="Caminho 432" d="M40.291,9.165a21.27,21.27,0,0,0-.209-2.584,8.688,8.688,0,0,0-.73-2.194A7.768,7.768,0,0,0,35.936.967a8.664,8.664,0,0,0-2.182-.73,21.244,21.244,0,0,0-2.6-.213C30.781.011,30.3,0,30.081,0L10.233,0c-.22,0-.7.007-1.069.02A21.362,21.362,0,0,0,6.58.23,8.692,8.692,0,0,0,4.386.96,7.766,7.766,0,0,0,.966,4.376a8.678,8.678,0,0,0-.73,2.182,21.291,21.291,0,0,0-.213,2.6C.01,9.531,0,10.01,0,10.231L0,30.079c0,.22.007.7.02,1.069a21.293,21.293,0,0,0,.209,2.584,8.684,8.684,0,0,0,.73,2.194,7.767,7.767,0,0,0,3.416,3.42,8.675,8.675,0,0,0,2.182.73,21.191,21.191,0,0,0,2.6.213c.37.014.848.02,1.069.02l19.849,0c.22,0,.7-.007,1.069-.02a21.33,21.33,0,0,0,2.584-.208,8.694,8.694,0,0,0,2.194-.73,7.768,7.768,0,0,0,3.42-3.416,8.672,8.672,0,0,0,.73-2.182,21.191,21.191,0,0,0,.213-2.6c.013-.37.02-.848.02-1.069l0-19.849c0-.22-.007-.7-.02-1.069M13.4,32.388H8.411V16.239H13.4Zm-2.5-18.559a2.863,2.863,0,1,1,2.862-2.863,2.863,2.863,0,0,1-2.862,2.863m21.36,18.559H27.372l.012-8.784c0-3.683-3.886-3.615-5.224-2.41a3.678,3.678,0,0,0-1.1,2.528v8.667H16.191V16.239h4.588v2.348a6.754,6.754,0,0,1,7.365-2.348,6.674,6.674,0,0,1,2.151,1.227,5.147,5.147,0,0,1,1.359,1.967,6.178,6.178,0,0,1,.612,2.531Z" transform="translate(0 -0.001)" fill="#eda511" fill-rule="evenodd"/>
    </g>
  </g>
</svg>
