<svg xmlns="http://www.w3.org/2000/svg" xmlns:xlink="http://www.w3.org/1999/xlink" width="96.625" height="96.626" viewBox="0 0 96.625 96.626">
  <defs>
    <clipPath id="clip-path">
      <rect id="Retângulo_388" data-name="Retângulo 388" width="96.625" height="96.626" fill="#eda511"/>
    </clipPath>
  </defs>
  <g id="Grupo_964" data-name="Grupo 964" transform="translate(0 0)">
    <g id="Grupo_963" data-name="Grupo 963" transform="translate(0 0)" clip-path="url(#clip-path)">
      <path id="Caminho_419" data-name="Caminho 419" d="M83.3,56.872V55.205a8.249,8.249,0,0,0-8.329-8.329H21.657a8.248,8.248,0,0,0-8.329,8.329v1.666a13.328,13.328,0,1,0,0,26.655v1.665a8.249,8.249,0,0,0,8.329,8.33H74.968a8.249,8.249,0,0,0,8.329-8.33V83.527a13.328,13.328,0,0,0,0-26.655M3.332,70.2a10.025,10.025,0,0,1,10-10V80.195a10.025,10.025,0,0,1-10-10M79.966,85.191a4.908,4.908,0,0,1-5,5H21.657a4.908,4.908,0,0,1-5-5V55.205a4.908,4.908,0,0,1,5-5H74.968a4.908,4.908,0,0,1,5,5Zm3.332-5V60.2a10,10,0,0,1,0,19.991" transform="translate(0 3.104)" fill="#eda511"/>
      <path id="Caminho_420" data-name="Caminho 420" d="M30.205,57.813a8.33,8.33,0,1,0,8.329,8.33,8.248,8.248,0,0,0-8.329-8.33m0,13.328a5,5,0,1,1,5-5,4.908,4.908,0,0,1-5,5" transform="translate(1.448 3.828)" fill="#eda511"/>
      <path id="Caminho_421" data-name="Caminho 421" d="M61.455,57.813a8.33,8.33,0,1,0,8.329,8.33,8.248,8.248,0,0,0-8.329-8.33m0,13.328a5,5,0,1,1,5-5,4.908,4.908,0,0,1-5,5" transform="translate(3.517 3.828)" fill="#eda511"/>
      <path id="Caminho_422" data-name="Caminho 422" d="M54.263,79.688H37.6a1.666,1.666,0,0,0,0,3.332H54.263a1.666,1.666,0,0,0,0-3.332" transform="translate(2.379 5.276)" fill="#eda511"/>
      <path id="Caminho_423" data-name="Caminho 423" d="M49.19,49.146l5-9.163H66.017A19.991,19.991,0,1,0,66.017,0H29.367a19.991,19.991,0,0,0,0,39.983H41.2l5,9.163a1.766,1.766,0,0,0,3,0ZM43.528,37.484a1.485,1.485,0,0,0-1.333-.833H29.367a16.659,16.659,0,0,1,0-33.319h36.65a16.659,16.659,0,1,1,0,33.319H53.191a1.749,1.749,0,0,0-1.5.833l-4,7.33Z" transform="translate(0.621 0)" fill="#eda511"/>
      <path id="Caminho_424" data-name="Caminho 424" d="M53.672,24.829l3.5-7,3.5,7a1.723,1.723,0,0,0,3,0l3.5-7L69,21.5a1.912,1.912,0,0,0,1.5,1h5a1.665,1.665,0,1,0,0-3.331h-4L68.665,13.5a1.624,1.624,0,0,0-3,0l-3.5,7-3.5-7a1.624,1.624,0,0,0-3,0l-3.5,7-3.5-7a1.624,1.624,0,0,0-3,0l-3.5,7-3.5-7a1.721,1.721,0,0,0-3,0l-3.5,7-3.5-7a1.721,1.721,0,0,0-3,0l-2.833,5.665h-4a1.665,1.665,0,0,0,0,3.331h5a1.6,1.6,0,0,0,1.5-1l1.833-3.665,3.5,7a1.914,1.914,0,0,0,1.5,1,1.6,1.6,0,0,0,1.5-1l3.5-7,3.5,7a1.721,1.721,0,0,0,3,0l3.5-7,3.5,7a1.912,1.912,0,0,0,1.5,1A1.6,1.6,0,0,0,53.672,24.829Z" transform="translate(1.138 0.828)" fill="#eda511"/>
    </g>
  </g>
</svg>
