<svg xmlns="http://www.w3.org/2000/svg" xmlns:xlink="http://www.w3.org/1999/xlink" width="136" height="97" viewBox="0 0 136 97">
  <defs>
    <clipPath id="clip-path">
      <rect id="Retângulo_385" data-name="Retângulo 385" width="136" height="97" transform="translate(0 0)" fill="#eda511"/>
    </clipPath>
  </defs>
  <g id="Grupo_957" data-name="Grupo 957" transform="translate(0.036)">
    <g id="Grupo_956" data-name="Grupo 956" transform="translate(-0.036)" clip-path="url(#clip-path)">
      <path id="Caminho_380" data-name="Caminho 380" d="M134.073,82.384h-2.923V23.253a7.317,7.317,0,0,0-7.308-7.308h-29.9V11.959h1.993A1.993,1.993,0,0,0,97.93,9.966V1.993A1.993,1.993,0,0,0,95.937,0H40.129a1.993,1.993,0,0,0-1.993,1.993V9.966a1.993,1.993,0,0,0,1.993,1.993h1.993v3.986h-29.9a7.317,7.317,0,0,0-7.308,7.308v59.13H1.993A1.993,1.993,0,0,0,0,84.377v5.315A7.316,7.316,0,0,0,7.308,97H128.758a7.316,7.316,0,0,0,7.308-7.308V84.377a1.993,1.993,0,0,0-1.993-1.993M93.944,41.192H105.9V71.753H93.944Zm14.616-3.986H93.944V33.219H108.56ZM42.122,3.986H93.944V7.973H42.122Zm47.836,7.973V71.753h-9.3V59.795h.664a1.993,1.993,0,0,0,0-3.986H54.745a1.993,1.993,0,0,0,0,3.986h.664V71.753h-9.3V11.959ZM66.04,71.753H59.4V59.795H66.04Zm3.986-11.959H76.67V71.753H70.026Zm-27.9,11.959H27.505V38.044l14.616-4.176ZM8.9,23.253a3.326,3.326,0,0,1,3.322-3.322h29.9v9.791l-17.157,4.9a1.993,1.993,0,0,0-1.445,1.916V71.753H20.2a1.993,1.993,0,1,0,0,3.986h95.671a1.993,1.993,0,1,0,0-3.986h-5.979V41.192h.664a1.993,1.993,0,0,0,1.993-1.993V31.226a1.993,1.993,0,0,0-1.993-1.993H93.944v-9.3h29.9a3.326,3.326,0,0,1,3.322,3.322v59.13H8.9ZM132.079,89.692a3.326,3.326,0,0,1-3.322,3.322H7.308a3.326,3.326,0,0,1-3.322-3.322V86.37H132.079Z" transform="translate(0.017)" fill="#eda511"/>
      <path id="Caminho_381" data-name="Caminho 381" d="M200.493,81.959h7.973a1.993,1.993,0,0,0,1.993-1.993V71.993A1.993,1.993,0,0,0,208.466,70h-7.973a1.993,1.993,0,0,0-1.993,1.993v7.973a1.993,1.993,0,0,0,1.993,1.993m1.993-7.973h3.986v3.986h-3.986Z" transform="translate(-145.731 -51.397)" fill="#eda511"/>
      <path id="Caminho_382" data-name="Caminho 382" d="M270.493,81.959h7.973a1.993,1.993,0,0,0,1.993-1.993V71.993A1.993,1.993,0,0,0,278.466,70h-7.973a1.993,1.993,0,0,0-1.993,1.993v7.973a1.993,1.993,0,0,0,1.993,1.993m1.993-7.973h3.986v3.986h-3.986Z" transform="translate(-197.128 -51.397)" fill="#eda511"/>
      <path id="Caminho_383" data-name="Caminho 383" d="M200.493,141.959h7.973a1.993,1.993,0,0,0,1.993-1.993v-7.973A1.993,1.993,0,0,0,208.466,130h-7.973a1.993,1.993,0,0,0-1.993,1.993v7.973a1.993,1.993,0,0,0,1.993,1.993m1.993-7.973h3.986v3.986h-3.986Z" transform="translate(-145.731 -95.452)" fill="#eda511"/>
      <path id="Caminho_384" data-name="Caminho 384" d="M270.493,141.959h7.973a1.993,1.993,0,0,0,1.993-1.993v-7.973A1.993,1.993,0,0,0,278.466,130h-7.973a1.993,1.993,0,0,0-1.993,1.993v7.973a1.993,1.993,0,0,0,1.993,1.993m1.993-7.973h3.986v3.986h-3.986Z" transform="translate(-197.128 -95.452)" fill="#eda511"/>
      <path id="Caminho_385" data-name="Caminho 385" d="M120.493,178.986h2.658a1.993,1.993,0,1,0,0-3.986h-2.658a1.993,1.993,0,0,0,0,3.986" transform="translate(-86.991 -128.493)" fill="#eda511"/>
      <path id="Caminho_386" data-name="Caminho 386" d="M120.493,208.986h2.658a1.993,1.993,0,1,0,0-3.986h-2.658a1.993,1.993,0,0,0,0,3.986" transform="translate(-86.991 -150.521)" fill="#eda511"/>
      <path id="Caminho_387" data-name="Caminho 387" d="M120.493,238.986h2.658a1.993,1.993,0,1,0,0-3.986h-2.658a1.993,1.993,0,0,0,0,3.986" transform="translate(-86.991 -172.548)" fill="#eda511"/>
      <path id="Caminho_388" data-name="Caminho 388" d="M365.493,178.986h2.658a1.993,1.993,0,1,0,0-3.986h-2.658a1.993,1.993,0,0,0,0,3.986" transform="translate(-266.882 -128.493)" fill="#eda511"/>
      <path id="Caminho_389" data-name="Caminho 389" d="M368.151,205h-2.658a1.993,1.993,0,0,0,0,3.986h2.658a1.993,1.993,0,1,0,0-3.986" transform="translate(-266.882 -150.521)" fill="#eda511"/>
      <path id="Caminho_390" data-name="Caminho 390" d="M368.151,235h-2.658a1.993,1.993,0,0,0,0,3.986h2.658a1.993,1.993,0,1,0,0-3.986" transform="translate(-266.882 -172.548)" fill="#eda511"/>
    </g>
  </g>
</svg>
