<svg xmlns="http://www.w3.org/2000/svg" xmlns:xlink="http://www.w3.org/1999/xlink" width="89" height="88" viewBox="0 0 89 88">
  <defs>
    <clipPath id="clip-path">
      <rect id="Retângulo_387" data-name="Retângulo 387" width="89" height="88" transform="translate(-0.085 0)" fill="#eda511"/>
    </clipPath>
  </defs>
  <g id="Grupo_962" data-name="Grupo 962" transform="translate(0.085 -0.5)">
    <g id="Grupo_961" data-name="Grupo 961" transform="translate(0 0.5)" clip-path="url(#clip-path)">
      <path id="Caminho_409" data-name="Caminho 409" d="M235.354,483.262l-2.438,2.438a1.3,1.3,0,0,0,1.832,1.832l2.438-2.438a1.3,1.3,0,1,0-1.831-1.832" transform="translate(-192.381 -399.91)" fill="#eda511"/>
      <path id="Caminho_410" data-name="Caminho 410" d="M211.136,408.518a1.3,1.3,0,0,0-1.831,0l-9.609,9.609a1.3,1.3,0,1,0,1.832,1.832l9.609-9.609a1.3,1.3,0,0,0,0-1.832" transform="translate(-164.897 -338.074)" fill="#eda511"/>
      <path id="Caminho_411" data-name="Caminho 411" d="M268.512,458.347l-.717.717a1.3,1.3,0,1,0,1.832,1.832l.717-.717a1.3,1.3,0,0,0-1.832-1.831" transform="translate(-221.237 -379.298)" fill="#eda511"/>
      <path id="Caminho_412" data-name="Caminho 412" d="M4.648,250.726a1.3,1.3,0,0,0-1.832,0L.379,253.164A1.3,1.3,0,0,0,2.21,255l2.438-2.438a1.3,1.3,0,0,0,0-1.832" transform="translate(0.001 -207.53)" fill="#eda511"/>
      <path id="Caminho_413" data-name="Caminho 413" d="M34.514,254.24a1.291,1.291,0,0,0,.916-.379l9.609-9.609a1.3,1.3,0,1,0-1.832-1.832L33.6,252.029a1.3,1.3,0,0,0,.916,2.211" transform="translate(-27.483 -200.659)" fill="#eda511"/>
      <path id="Caminho_414" data-name="Caminho 414" d="M36.175,228.739a1.291,1.291,0,0,0,.916-.379l.717-.717a1.3,1.3,0,0,0-1.832-1.832l-.717.717a1.3,1.3,0,0,0,.916,2.211" transform="translate(-28.857 -186.918)" fill="#eda511"/>
      <path id="Caminho_415" data-name="Caminho 415" d="M43.837,374.878l-2.369-2.369a1.305,1.305,0,0,0-.315-.232,6.659,6.659,0,0,0-5.219-.2,17.061,17.061,0,0,0-9.119,8.156A20.915,20.915,0,0,0,24.77,390.4a1.3,1.3,0,0,0,1.175,1.175c.055.005.433.036,1.052.036a21.094,21.094,0,0,0,9.117-2.081,17.062,17.062,0,0,0,8.156-9.119,6.66,6.66,0,0,0-.2-5.219,1.292,1.292,0,0,0-.232-.315m-2.03,4.735a14.708,14.708,0,0,1-6.844,7.6,18.565,18.565,0,0,1-7.635,1.8,18.463,18.463,0,0,1,1.806-7.632,14.708,14.708,0,0,1,7.6-6.844,5.743,5.743,0,0,1,1.737-.3,3.256,3.256,0,0,1,1.32.257l2.061,2.061a4.427,4.427,0,0,1-.045,3.057" transform="translate(-20.463 -307.884)" fill="#eda511"/>
      <path id="Caminho_416" data-name="Caminho 416" d="M147.98,1.383A1.3,1.3,0,0,0,146.808.21,56.581,56.581,0,0,0,121.9,3.77,65.205,65.205,0,0,0,99.03,18.647a66.571,66.571,0,0,0-8.285,10.085l-2.784-1.392A9.4,9.4,0,0,0,77.1,29.1l-4.47,4.47a1.3,1.3,0,0,0,.163,1.97L83.54,43.217q-.656,1.911-1.183,3.857a1.3,1.3,0,0,0,.335,1.253l2.1,2.1L79.64,58.149a1.3,1.3,0,0,0,.162,1.634l8.6,8.6a1.295,1.295,0,0,0,1.634.162L97.765,63.4l2.1,2.1a1.295,1.295,0,0,0,1.253.335q1.946-.525,3.858-1.183L112.649,75.4a1.3,1.3,0,0,0,.947.538q.054,0,.107,0a1.3,1.3,0,0,0,.916-.379l4.47-4.47a9.4,9.4,0,0,0,1.762-10.86l-1.392-2.784a66.552,66.552,0,0,0,10.085-8.284,65.207,65.207,0,0,0,14.877-22.868,56.582,56.582,0,0,0,3.559-24.91M86.8,29.656l2.538,1.269q-1,1.636-1.9,3.321l-6.554-4.681a6.809,6.809,0,0,1,5.911.091M75.544,34.322l3.147-3.147,7.571,5.408q-.973,2.028-1.792,4.114ZM89.488,65.806l-7.1-7.1,4.273-6.41,9.24,9.24ZM85.058,47.03q.721-2.539,1.679-5.015l19.439,19.439q-2.473.954-5.015,1.679Zm28.811,25.617-6.375-8.926q2.084-.82,4.114-1.792l5.408,7.571Zm4.666-11.259a6.808,6.808,0,0,1,.092,5.911l-4.681-6.554q1.684-.9,3.321-1.9Zm9.178-14.058a62.641,62.641,0,0,1-18.945,13.054l-20.96-20.96a63.1,63.1,0,0,1,37.834-34.19l17.316,17.316a62.1,62.1,0,0,1-15.245,24.78m16.075-27.613L128.475,4.4a52.561,52.561,0,0,1,17.012-1.7,52.548,52.548,0,0,1-1.7,17.012" transform="translate(-59.775 -0.415)" fill="#eda511"/>
      <path id="Caminho_417" data-name="Caminho 417" d="M234.534,117.576a15.11,15.11,0,1,0,15.11,15.11,15.127,15.127,0,0,0-15.11-15.11m0,27.63a12.52,12.52,0,1,1,12.52-12.52,12.534,12.534,0,0,1-12.52,12.52" transform="translate(-181.533 -97.687)" fill="#eda511"/>
      <path id="Caminho_418" data-name="Caminho 418" d="M259.353,147.576a9.929,9.929,0,1,0,9.929,9.929,9.941,9.941,0,0,0-9.929-9.929m0,17.269a7.339,7.339,0,1,1,7.339-7.339,7.347,7.347,0,0,1-7.339,7.339" transform="translate(-206.352 -122.507)" fill="#eda511"/>
    </g>
  </g>
</svg>
