<svg id="Grupo_969" data-name="Grupo 969" xmlns="http://www.w3.org/2000/svg" xmlns:xlink="http://www.w3.org/1999/xlink" width="31.365" height="46.021" viewBox="0 0 31.365 46.021">
  <defs>
    <clipPath id="clip-path">
      <rect id="Retângulo_392" data-name="Retângulo 392" width="31.365" height="46.021" fill="#eda511"/>
    </clipPath>
  </defs>
  <g id="Grupo_968" data-name="Grupo 968" transform="translate(0 0)" clip-path="url(#clip-path)">
    <path id="Caminho_427" data-name="Caminho 427" d="M23.807,46.021H7.558A7.566,7.566,0,0,1,0,38.463V7.558A7.566,7.566,0,0,1,7.558,0h16.25a7.566,7.566,0,0,1,7.558,7.558v30.9a7.566,7.566,0,0,1-7.558,7.558M7.558,4.87A2.691,2.691,0,0,0,4.869,7.558v30.9a2.691,2.691,0,0,0,2.688,2.688h16.25A2.691,2.691,0,0,0,26.5,38.463V7.558A2.691,2.691,0,0,0,23.807,4.87Z" transform="translate(0 0)" fill="#eda511"/>
    <path id="Caminho_428" data-name="Caminho 428" d="M23.659,58.028a3.074,3.074,0,1,1,3.074-3.074,3.078,3.078,0,0,1-3.074,3.074m0-4.87a1.8,1.8,0,1,0,1.8,1.8,1.8,1.8,0,0,0-1.8-1.8" transform="translate(-7.977 -20.104)" fill="#eda511"/>
    <path id="Caminho_429" data-name="Caminho 429" d="M24.5,15.306H17.684a2.45,2.45,0,0,1,0-4.9H24.5a2.45,2.45,0,0,1,0,4.9" transform="translate(-5.909 -4.032)" fill="#eda511"/>
  </g>
</svg>
